<?xml version="1.0" encoding="UTF-8"?>
<!-- Generator: Adobe Illustrator 15.0.2, SVG Export Plug-In . SVG Version: 6.00 Build 0)  -->
<!DOCTYPE svg PUBLIC "-//W3C//DTD SVG 1.1//EN" "http://www.w3.org/Graphics/SVG/1.1/DTD/svg11.dtd">
<svg version="1.1" id="Layer_1" xmlns="http://www.w3.org/2000/svg" xmlns:xlink="http://www.w3.org/1999/xlink" x="0px" y="0px" width="24px" height="24px" viewBox="0 0 511.998 512.001" enable-background="new 0 0 511.998 512.001" xml:space="preserve">
<path d="M85.545,116.738L6.458,37.652c-8.611-8.611-8.611-22.576,0-31.194c8.618-8.611,22.583-8.611,31.194,0.007l79.087,79.08  c60.477-45.336,146.65-40.506,201.651,14.494L100.04,318.39C45.039,263.389,40.21,177.215,85.545,116.738z M411.959,193.614  c55.014,55.001,59.83,141.182,14.501,201.651l79.08,79.08c8.611,8.625,8.611,22.582,0,31.207c-8.611,8.598-22.569,8.598-31.193,0  l-79.08-79.093c-60.47,45.328-146.65,40.512-201.651-14.502l46.791-46.784l-38.989-38.989c-12.924-12.91-12.924-33.86,0-46.784  c12.917-12.923,33.867-12.923,46.791,0l38.988,38.989l31.194-31.193l-38.989-38.989c-12.924-12.924-12.924-33.874,0-46.791  c12.924-12.924,33.874-12.924,46.784,0l38.989,38.989L411.959,193.614z"/>
</svg>