<?xml version="1.0" encoding="UTF-8"?>
<!-- Generator: Adobe Illustrator 16.0.0, SVG Export Plug-In . SVG Version: 6.00 Build 0)  -->
<!DOCTYPE svg PUBLIC "-//W3C//DTD SVG 1.1//EN" "http://www.w3.org/Graphics/SVG/1.1/DTD/svg11.dtd">
<svg version="1.1" id="Layer_1" xmlns="http://www.w3.org/2000/svg" xmlns:xlink="http://www.w3.org/1999/xlink" x="0px" y="0px" width="24px" height="24px" viewBox="0 0 24 24" enable-background="new 0 0 24 24" xml:space="preserve">
<g>
	<polygon fill="#000000" points="10,20 4,20 4,4 10,4 10,7 14,7 14,0 0,0 0,24 14,24 14,17 10,17  "/>
	<path fill="#000000" d="M18.414,6.586c-0.78-0.781-2.048-0.781-2.828,0c-0.781,0.781-0.781,2.047,0,2.828L16.172,10H9   c-1.104,0-2,0.896-2,2s0.896,2,2,2h7.172l-0.586,0.586c-0.781,0.781-0.781,2.047,0,2.828C15.977,17.805,16.488,18,17,18   s1.023-0.195,1.414-0.586L23.828,12L18.414,6.586z"/>
</g>
</svg>